<svg viewBox="0 0 950 800" xmlns="http://www.w3.org/2000/svg" shape-rendering="crispEdges"><g fill="rgba(14,25,41,1)"><path d="M150 200h50v50h-50zM150 250h50v50h-50zM150 300h50v50h-50zM150 350h50v50h-50zM150 400h50v50h-50zM150 450h50v50h-50zM150 500h50v50h-50zM150 550h50v50h-50zM150 600h50v50h-50zM200 600h50v50h-50zM250 600h50v50h-50zM300 600h50v50h-50zM350 600h50v50h-50zM400 600h50v50h-50zM450 600h50v50h-50zM500 600h50v50h-50zM550 600h50v50h-50zM600 600h50v50h-50zM650 600h50v50h-50zM700 600h50v50h-50zM750 600h50v50h-50zM750 550h50v50h-50zM750 500h50v50h-50zM750 450h50v50h-50zM750 400h50v50h-50zM750 350h50v50h-50zM750 300h50v50h-50zM750 250h50v50h-50zM750 200h50v50h-50zM700 200h50v50h-50zM700 150h50v50h-50zM650 150h50v50h-50zM600 150h50v50h-50zM550 150h50v50h-50zM500 150h50v50h-50zM450 150h50v50h-50zM400 150h50v50h-50zM350 150h50v50h-50zM300 150h50v50h-50zM250 150h50v50h-50zM200 150h50v50h-50zM200 200h50v50h-50zM250 200h50v50h-50zM300 200h50v50h-50zM350 200h50v50h-50zM400 200h50v50h-50zM450 200h50v50h-50zM500 200h50v50h-50zM550 200h50v50h-50zM600 200h50v50h-50zM650 200h50v50h-50zM700 250h50v50h-50zM650 250h50v50h-50zM600 250h50v50h-50zM550 250h50v50h-50zM500 250h50v50h-50zM450 250h50v50h-50zM400 250h50v50h-50zM350 250h50v50h-50zM300 250h50v50h-50zM250 250h50v50h-50zM200 250h50v50h-50zM200 300h50v50h-50zM250 300h50v50h-50zM300 300h50v50h-50zM350 300h50v50h-50zM400 300h50v50h-50zM450 300h50v50h-50zM500 300h50v50h-50zM550 300h50v50h-50zM600 300h50v50h-50zM650 300h50v50h-50zM700 300h50v50h-50zM700 350h50v50h-50zM650 350h50v50h-50zM600 350h50v50h-50zM550 350h50v50h-50zM500 350h50v50h-50zM450 350h50v50h-50zM400 350h50v50h-50zM350 350h50v50h-50zM300 350h50v50h-50zM250 350h50v50h-50zM200 350h50v50h-50zM200 400h50v50h-50zM250 400h50v50h-50zM300 400h50v50h-50zM350 400h50v50h-50zM400 400h50v50h-50zM450 400h50v50h-50zM500 400h50v50h-50zM550 400h50v50h-50zM600 400h50v50h-50zM650 400h50v50h-50zM700 400h50v50h-50zM700 450h50v50h-50zM650 450h50v50h-50zM600 450h50v50h-50zM550 450h50v50h-50zM500 450h50v50h-50zM450 450h50v50h-50zM400 450h50v50h-50zM350 450h50v50h-50zM300 450h50v50h-50zM250 450h50v50h-50zM200 450h50v50h-50zM200 500h50v50h-50zM250 500h50v50h-50zM300 500h50v50h-50zM350 500h50v50h-50zM400 500h50v50h-50zM450 500h50v50h-50zM500 500h50v50h-50zM550 500h50v50h-50zM600 500h50v50h-50zM650 500h50v50h-50zM700 500h50v50h-50zM700 550h50v50h-50zM650 550h50v50h-50zM600 550h50v50h-50zM550 550h50v50h-50zM500 550h50v50h-50zM450 550h50v50h-50zM400 550h50v50h-50zM350 550h50v50h-50zM300 550h50v50h-50zM250 550h50v50h-50zM200 550h50v50h-50zM250 650h50v50h-50zM300 650h50v50h-50zM350 650h50v50h-50zM400 650h50v50h-50zM450 650h50v50h-50zM500 650h50v50h-50zM550 650h50v50h-50zM600 650h50v50h-50zM650 650h50v50h-50zM600 50h50v50h-50zM650 50h50v50h-50z"/></g><g fill="rgba(67,92,124,1)"><path d="M150 750h50v50h-50zM200 750h50v50h-50zM250 750h50v50h-50zM300 750h50v50h-50zM350 750h50v50h-50zM400 750h50v50h-50zM450 750h50v50h-50zM500 750h50v50h-50zM550 750h50v50h-50zM600 750h50v50h-50zM650 750h50v50h-50zM700 750h50v50h-50zM750 750h50v50h-50zM800 700h50v50h-50zM100 700h50v50h-50zM50 650h50v50H50zM850 650h50v50h-50zM50 600h50v50H50zM50 550h50v50H50zM50 500h50v50H50zM50 450h50v50H50zM50 400h50v50H50zM50 350h50v50H50zM50 300h50v50H50zM50 250h50v50H50zM50 200h50v50H50zM50 150h50v50H50zM850 600h50v50h-50zM850 550h50v50h-50zM850 500h50v50h-50zM850 450h50v50h-50zM850 400h50v50h-50zM850 350h50v50h-50zM850 300h50v50h-50zM850 250h50v50h-50zM850 200h50v50h-50zM850 150h50v50h-50zM100 100h50v50h-50zM800 100h50v50h-50zM150 50h50v50h-50zM200 50h50v50h-50zM300 50h50v50h-50zM350 50h50v50h-50zM400 50h50v50h-50zM450 50h50v50h-50zM500 50h50v50h-50zM750 50h50v50h-50zM150 100h50v50h-50zM200 100h50v50h-50zM250 100h50v50h-50zM300 100h50v50h-50zM350 100h50v50h-50zM400 100h50v50h-50zM450 100h50v50h-50zM500 100h50v50h-50zM550 100h50v50h-50zM600 100h50v50h-50zM650 100h50v50h-50zM700 100h50v50h-50zM750 100h50v50h-50zM100 150h50v50h-50zM100 200h50v50h-50zM100 250h50v50h-50zM100 300h50v50h-50zM100 350h50v50h-50zM100 400h50v50h-50zM100 450h50v50h-50zM100 500h50v50h-50zM100 550h50v50h-50zM100 600h50v50h-50zM100 650h50v50h-50zM150 700h50v50h-50zM200 700h50v50h-50zM250 700h50v50h-50zM300 700h50v50h-50zM350 700h50v50h-50zM400 700h50v50h-50zM450 700h50v50h-50zM500 700h50v50h-50zM550 700h50v50h-50zM600 700h50v50h-50zM650 700h50v50h-50zM750 700h50v50h-50zM700 700h50v50h-50zM800 650h50v50h-50zM800 600h50v50h-50zM800 550h50v50h-50zM800 500h50v50h-50zM800 450h50v50h-50zM800 150h50v50h-50zM800 200h50v50h-50zM800 250h50v50h-50zM800 300h50v50h-50zM800 350h50v50h-50zM800 400h50v50h-50zM150 650h50v50h-50zM200 650h50v50h-50zM750 650h50v50h-50zM700 650h50v50h-50zM150 150h50v50h-50zM750 150h50v50h-50zM250 50h50v50h-50zM200 0h50v50h-50zM250 0h50v50h-50zM300 0h50v50h-50zM350 0h50v50h-50zM400 0h50v50h-50zM450 0h50v50h-50zM500 0h50v50h-50zM550 0h50v50h-50zM600 0h50v50h-50zM650 0h50v50h-50zM700 0h50v50h-50zM100 50h50v50h-50zM800 50h50v50h-50zM550 50h50v50h-50zM750 0h50v50h-50zM150 0h50v50h-50zM700 50h50v50h-50z"/></g><g fill="rgba(46,207,249,1)"><path d="M300 300h50v50h-50zM300 350h50v50h-50zM350 300h50v50h-50zM400 300h50v50h-50zM450 300h50v50h-50zM500 300h50v50h-50zM550 300h50v50h-50zM600 300h50v50h-50zM650 300h50v50h-50zM650 350h50v50h-50zM600 350h50v50h-50zM550 350h50v50h-50zM500 350h50v50h-50zM450 350h50v50h-50zM400 350h50v50h-50zM350 350h50v50h-50zM250 300h50v50h-50zM250 350h50v50h-50zM500 600h50v50h-50zM550 600h50v50h-50zM600 550h50v50h-50zM450 550h50v50h-50zM250 50h50v50h-50z"/></g><g fill="rgba(90,149,226,0.4)"><path d="M100 200h50v50h-50zM100 250h50v50h-50zM100 300h50v50h-50zM100 350h50v50h-50zM100 400h50v50h-50zM100 450h50v50h-50zM50 400h50v50H50zM50 350h50v50H50zM50 300h50v50H50zM50 250h50v50H50zM150 200h50v50h-50zM200 200h50v50h-50zM250 200h50v50h-50zM250 250h50v50h-50zM250 300h50v50h-50zM250 350h50v50h-50zM250 400h50v50h-50zM250 450h50v50h-50zM200 450h50v50h-50zM150 450h50v50h-50zM150 400h50v50h-50zM150 350h50v50h-50zM150 300h50v50h-50zM150 250h50v50h-50zM200 250h50v50h-50zM200 300h50v50h-50zM200 350h50v50h-50zM200 400h50v50h-50zM300 450h50v50h-50zM300 400h50v50h-50zM350 400h50v50h-50zM350 350h50v50h-50zM350 300h50v50h-50zM350 250h50v50h-50zM300 250h50v50h-50zM300 200h50v50h-50zM300 300h50v50h-50zM300 350h50v50h-50zM550 250h50v50h-50zM550 300h50v50h-50zM550 350h50v50h-50zM550 400h50v50h-50zM600 400h50v50h-50zM600 350h50v50h-50zM600 300h50v50h-50zM600 250h50v50h-50zM600 200h50v50h-50zM600 450h50v50h-50zM650 450h50v50h-50zM650 400h50v50h-50zM650 350h50v50h-50zM650 300h50v50h-50zM650 250h50v50h-50zM650 200h50v50h-50zM700 200h50v50h-50zM750 200h50v50h-50zM800 200h50v50h-50zM800 250h50v50h-50zM800 300h50v50h-50zM800 350h50v50h-50zM800 400h50v50h-50zM800 450h50v50h-50zM750 450h50v50h-50zM700 450h50v50h-50zM700 400h50v50h-50zM700 350h50v50h-50zM700 300h50v50h-50zM700 250h50v50h-50zM750 250h50v50h-50zM750 300h50v50h-50zM750 350h50v50h-50zM750 400h50v50h-50zM850 250h50v50h-50zM850 300h50v50h-50zM850 350h50v50h-50zM850 400h50v50h-50z"/></g><g fill="rgba(27,40,62,1)"><path d="M450 300h50v50h-50zM450 350h50v50h-50zM400 250h50v50h-50zM350 200h50v50h-50zM300 150h50v50h-50zM250 150h50v50h-50zM200 150h50v50h-50zM150 150h50v50h-50zM350 450h50v50h-50zM400 400h50v50h-50zM500 250h50v50h-50zM550 200h50v50h-50zM600 150h50v50h-50zM650 150h50v50h-50zM700 150h50v50h-50zM750 150h50v50h-50zM800 150h50v50h-50zM800 500h50v50h-50zM750 500h50v50h-50zM700 500h50v50h-50zM650 500h50v50h-50zM600 500h50v50h-50zM550 450h50v50h-50zM500 400h50v50h-50zM900 250h50v50h-50zM900 300h50v50h-50zM900 350h50v50h-50zM900 400h50v50h-50zM0 250h50v50H0zM0 300h50v50H0zM0 350h50v50H0zM400 350h50v50h-50zM400 300h50v50h-50zM500 300h50v50h-50zM500 350h50v50h-50zM300 500h50v50h-50zM250 500h50v50h-50zM200 500h50v50h-50zM150 500h50v50h-50zM100 500h50v50h-50zM50 450h50v50H50zM0 400h50v50H0zM50 200h50v50H50zM100 150h50v50h-50zM850 450h50v50h-50zM850 200h50v50h-50z"/></g></svg>